PathFileType	4	(X/Y/Z)	Patient4_TMGait_0pt5_02_right_07.trc.trc
DataRate	CameraRate	NumFrames	NumMarkers	Units	OrigDataRate	OrigDataStartFrame	OrigNumFrames
76.502732240437	76.502732240437	7	33	mm	76.502732240437	89	       141
Frame#	Time	Sacral			L.Shoulder			Chest			R.Shoulder			Neck			R.ASIS			L.ASIS			R.Thigh.Superior			R.Thigh.Lateral			R.Thigh.Inferior			R.Patella			L.Thigh.Superior			L.Thigh.Lateral			L.Thigh.Inferior			L.Patella			L.Shank.Superior			L.Shank.Lateral			L.Shank.Inferior			R.Shank.Superior			R.Shank.Lateral			R.Shank.Inferior			R.Heel			R.Midfoot.Superior			R.Midfoot.Lateral			R.Toe			L.Heel			L.Midfoot.Lateral			L.Midfoot.Superior			L.Toe			L.Elbow			L.Wrist			R.Elbow			R.Wrist			
		X1	Y1	Z1	X2	Y2	Z2	X3	Y3	Z3	X4	Y4	Z4	X5	Y5	Z5	X6	Y6	Z6	X7	Y7	Z7	X8	Y8	Z8	X9	Y9	Z9	X10	Y10	Z10	X11	Y11	Z11	X12	Y12	Z12	X13	Y13	Z13	X14	Y14	Z14	X15	Y15	Z15	X16	Y16	Z16	X17	Y17	Z17	X18	Y18	Z18	X19	Y19	Z19	X20	Y20	Z20	X21	Y21	Z21	X22	Y22	Z22	X23	Y23	Z23	X24	Y24	Z24	X25	Y25	Z25	X26	Y26	Z26	X27	Y27	Z27	X28	Y28	Z28	X29	Y29	Z29	X30	Y30	Z30	X31	Y31	Z31	X32	Y32	Z32	X33	Y33	Z33	

89	10.300285714286	554.723702036555	1004.914751925885	501.017079514753	704.234951141552	1437.653699917687	323.118016263226	824.957562745714	1361.695730281829	468.922854334271	762.066707781014	1431.404313695364	653.549961269693	720.270556210193	1492.786461170726	475.294375547960	785.536609088733	936.217878065256	604.501675823652	759.275289406170	958.283053642992	331.105102964042	793.026251815247	724.332313692335	581.917787935002	694.212783494673	627.028565730461	643.387779372671	763.272906879919	559.929815418862	568.360511798099	744.847827126527	459.058691587110	582.295649309906	831.110832121151	766.144233568400	366.604117057133	765.086924205098	638.252636056969	302.018061217056	860.979595514758	573.054956460867	365.024281778335	871.639812732409	500.852297029946	371.765495482565	851.022953415820	426.902220702367	362.035545742992	772.023731638524	305.672083988549	309.663878936714	835.301840902748	198.307322367022	376.905181071857	679.428187351889	387.802968889247	585.582341138000	569.058707639364	322.651671207612	642.893598240606	575.316933539929	215.725689765423	586.060022468765	390.136061859990	97.718504452007	550.860860965424	566.838635327010	102.447432023226	590.501510996217	465.542032783051	62.114059544358	624.052684685652	667.063687266528	35.627616341998	617.896891344552	719.805027954886	37.511377419686	416.125076804140	794.553900756825	35.558587003724	336.055388917027	876.574758517519	97.604178022718	362.780788388257	1005.508246984662	47.557737594369	336.284515557991	617.492568639090	1094.197571865877	207.298678166905	681.395234595990	839.235578559402	199.815785826691	839.518784513772	1098.689681721914	771.662922238911	1078.783562195924	1049.698237998333	700.183227512914	
90	10.313357142857	555.080994387139	1005.196119133728	497.618612631669	705.521811805776	1438.027295657291	320.152549165732	825.390492427623	1362.324948382664	466.744929119922	761.240416700390	1432.012182825109	650.916399552298	720.456488757140	1493.241097440908	472.391844389758	785.420133227803	936.658919112179	602.116377730363	760.791562840488	958.555732741140	328.804570621206	796.595254956086	725.238902933998	580.673649359951	699.647871928345	626.553727799422	642.177089801474	770.761518655098	560.114934033356	567.785969158603	753.200349674806	457.707815466964	582.979897535712	831.636240113694	765.431436807783	363.623815756534	763.842624911866	638.075423831051	300.059330251754	859.441006353343	572.213810173279	362.747225132789	869.559848454134	500.104888059917	370.088029770546	848.311388336260	426.072672657580	360.663892931798	768.321105357610	305.393301329146	308.636807370880	830.252479641675	197.778672830352	376.523040364100	685.463837652944	387.497672672593	585.811894504755	572.877936754088	326.088339178748	642.788412003815	576.454229315113	218.700222381260	586.721696100679	387.754038781130	107.542576080532	551.381823408683	564.294816495944	104.281587948690	591.242378418086	461.357368503048	68.146138424177	624.308341810493	660.611956326029	34.971055802988	617.987703116164	713.274978704436	37.445892579653	416.067571088493	788.015127549638	35.460136068215	335.930583777584	870.133949366085	97.426071594849	362.764249632609	999.081373275423	47.171253659274	336.264391695546	623.712811829922	1093.613720916989	202.639983579310	696.143065247894	840.982718879653	193.471769245423	831.259568384688	1097.150049652327	769.576540823761	1068.465778115302	1031.480567226136	702.989854214525	
91	10.326428571429	555.316882699264	1005.335740105498	494.344081523326	706.998229006790	1438.259103197631	317.199006953204	825.845346016929	1362.793247408386	464.697466646948	760.278672268931	1432.485859519728	648.344656637552	720.679515430123	1493.581081346294	469.498162780328	785.082940405013	936.939254081493	599.928913738727	762.180234830373	958.688476206428	326.715540532200	800.626402275198	726.305626736995	579.546577916106	705.900463050229	626.022579702608	641.081363808063	779.184156594142	560.468031847811	567.253493961468	762.584401452259	456.531168265383	583.533742229474	831.858418845017	764.496575647005	360.658188907480	762.305986571015	637.861579790724	297.996504228984	857.493522082529	571.289083227079	360.459313345501	867.062502891565	499.310869695975	368.261607197061	845.237518559704	425.218480577252	359.156740164920	764.332427866561	305.027569502682	307.520644458858	825.058288476438	197.252947274793	376.042394299799	692.587890596940	387.332380590457	585.958671667255	577.873587558937	329.857580766625	642.670571923314	578.486434072306	222.173991530197	587.283200706608	386.377289967054	118.720838074356	551.814481014561	562.361454966469	106.794966898394	592.008993197347	457.805470606616	75.384777918822	624.526080490078	654.282875620157	34.169901228890	618.155728973182	706.731195038280	37.380754986640	415.990548076096	781.465312524093	35.339186357483	335.785602523961	863.686520813960	97.221306254326	362.712576075802	992.645933659231	46.757126098554	336.251605455800	630.096688402775	1093.047823297456	197.883375850467	711.104100329121	843.049471869600	187.321410812969	822.700949072335	1095.539714858363	767.306954278904	1056.597640252000	1012.944515231466	706.021829505878	
92	10.339500000000	555.401400740584	1005.349679267820	491.224021333877	708.649875909900	1438.338927393329	314.294026137965	826.314389759015	1363.087022718387	462.809878906619	759.210921783536	1432.843277432795	645.865279217103	720.961635170028	1493.812384557650	466.639648377233	784.506477133298	937.069416775144	597.974599834130	763.393137517668	958.733109086851	324.847141699515	805.036897576701	727.603317041479	578.472310752941	712.921372246877	625.531010887136	640.072838193144	788.432913528328	561.092770578754	566.705518967174	772.930765363850	455.647381322916	583.885542473126	831.783579136635	763.442770118444	357.788955379241	760.551463128256	637.659108947841	295.889443043620	855.207472002990	570.337979443105	358.231121151104	864.201417860525	498.499944970660	366.370147298115	841.854396204572	424.367971473756	357.580507320011	760.107132971119	304.619904112603	306.336464235785	819.732927943400	196.744419759816	375.486290606124	700.753459016106	387.398481036699	585.963584525072	584.036768666492	333.989242198916	642.499379701499	581.428136639491	226.200950895111	587.691281095677	386.132527330743	131.196886689872	552.132676816628	561.116696615221	110.099160071990	592.754322358926	455.033995979753	83.854983938708	624.680898732196	648.215670257947	33.276446174228	618.381489785411	700.179585217468	37.320066982251	415.891119346520	774.907986616557	35.207745481813	335.619318002579	857.227303713898	97.009890019886	362.623069271976	986.197523630416	46.354635193184	336.231274446537	636.708772753830	1092.481118148838	193.051458333698	726.228288557063	845.391331031614	181.396797161490	813.872725752148	1093.894845691138	764.903359113670	1043.116123063812	994.283784007574	709.223051601640	
93	10.352571428571	555.308887263966	1005.267635624846	488.275684769205	710.446346289452	1438.269097069989	311.475217219156	826.783914010765	1363.210811274309	461.104640701767	758.063155222730	1433.109151884799	643.506157077126	721.318917551390	1493.949614238184	463.844567099681	783.690509447361	937.080057111498	596.274466691872	764.400391935591	958.742095649532	323.200111255330	809.715192098496	729.203068895617	577.386035885257	720.610058808337	625.190128616022	639.118650923671	798.342703695954	562.098254265497	566.085757775030	784.117443655303	455.180440111311	583.979701451334	831.425827257359	762.354351801889	355.082344665857	758.624721495282	637.494995239215	293.810980075154	852.644441166205	569.398983945593	356.128231349855	861.031672466640	497.694272570622	364.507026496756	838.212614695106	423.543843239012	356.010471282344	755.688543091542	304.209063635683	305.125591169607	814.290779401936	196.262848690189	374.888156438062	709.862241368734	387.790957822139	585.780745954245	591.303443790353	338.497382373364	642.236195084682	585.276802904906	230.801960977078	587.902176945103	387.118998687699	144.786936031581	552.316775305535	560.654808339999	114.251155532978	593.422404521369	453.202666470629	93.472561637849	624.746607629659	642.605413288481	32.389140923702	618.620731212947	693.623699363776	37.265973883294	415.771030213118	768.344957589242	35.076226854050	335.435737986255	850.751527915908	96.807622767238	362.500877779108	979.731976810997	45.993586460483	336.193998676499	643.603805503871	1091.905640305307	188.178611247712	741.470736283810	847.968466442695	175.732017330608	804.811233675640	1092.264508994303	762.418120144503	1027.987038413208	975.722024028505	712.514861638515	
94	10.365642857143	555.021888905229	1005.131246089562	485.505238400841	712.347416916369	1438.065140908427	308.777922555508	827.237067247472	1363.187658878297	459.596651393116	756.854828779582	1433.313845250809	641.290477378648	721.760415476553	1494.015490546742	461.140835316316	782.653608867903	937.019964291884	594.834412023787	765.191397063452	958.762599491928	321.768998738220	814.530629903495	731.168110421673	576.232759154449	728.820413853133	625.114250421215	638.185497039205	808.704328599076	563.587058239532	565.347059990275	795.976610586304	455.247679534393	583.782047833580	830.805078908249	761.291363056695	352.588421256097	756.547087042740	637.379684123760	291.836648805802	849.852482035890	568.493459676833	354.206756006241	857.601989899220	496.908578336898	362.762812190751	834.354712813541	422.763090597804	354.521530519642	751.111536917694	303.825355474237	303.939611179748	808.745445449459	195.814379248712	374.286643421863	719.773292914430	388.598042875539	585.383930807342	599.560395177818	343.371679003324	641.850514440254	590.017974090573	235.951805090270	587.889179269641	389.399366329855	159.171443035812	552.360692024847	561.088421901210	119.230500867427	593.953509402972	452.476820214827	104.026928278752	624.700846700756	637.706906062185	31.647777824528	618.804472398413	687.064723076780	37.219237915716	415.635152967774	761.776573590495	34.952718307397	335.242332664634	844.255500856520	96.625203438818	362.356617190133	973.245852671640	45.692642441691	336.136195402741	650.819863412221	1091.326866610137	183.310571647576	756.789434384893	850.751242511520	170.363429087046	795.557693266644	1090.707878054563	759.901604743059	1011.212334038541	957.506376570803	715.801811860810	
95	10.378714285714	554.534752756860	1004.990556423174	482.911350955758	714.310761928296	1437.755442767450	306.232875736886	827.657533704462	1363.056177370183	458.293687580708	755.598894004020	1433.491464930286	639.235627327382	722.288256931010	1494.039176863908	458.554806273996	781.430533491137	936.951382395799	593.647139854798	765.772671903310	958.832834997693	320.542652898501	819.345005396001	733.546365995422	574.975449564583	737.373250207644	625.407675148313	637.244864753880	819.283941613760	565.643384455089	564.458234960743	808.307500548152	455.948534998308	583.282991932206	829.943819525674	760.289713608596	350.342475778573	754.324186011820	637.312897972611	290.034253984781	846.864914797230	567.629407639170	352.511128663746	853.950073487318	496.151247977532	361.215615355053	830.312349094411	422.037634462418	353.180363612434	746.402324026521	303.490092763150	302.830393362308	803.108704788169	195.402751135230	373.720363355789	730.317519069161	389.890728238336	584.769559346622	608.658482289401	348.569386628490	641.325242929459	595.630914198471	241.570966338924	587.647383768313	392.995066298181	173.905951140006	552.277365677426	562.546591198103	124.926877547040	594.291033077368	453.018894132800	115.181774301856	624.530760383785	633.831938884295	31.215988124869	618.845740303480	680.501888822168	37.179898241588	415.489916811780	755.202188108277	34.842791199540	335.048087636197	837.736953893387	96.468520714629	362.203453675835	966.736737642911	45.459970872023	336.059262767535	658.373042740474	1090.765219943425	178.502759904118	772.142784242790	853.725037595427	165.329414352205	786.155349949888	1089.290138555768	757.398451866451	992.835909920167	939.897511040859	718.980622700655	
